# xmcd
#
# Track frame offsets:
#	225
#	16565
#	32810
#	55156
#	68833
#	88737
#	120397
#	146421
#	164244
#	186817
#	218513
#
# Disc length: 3268 seconds
#
# Revision: 1
# Processed by: cddbd v1.5.2PL0 Copyright (c) Steve Scherf et al.
# Submitted via: audiograbber 1.83.01
#
DISCID=910cc10b
DTITLE=Menphis La Blusera - Cosas De Hombres
DYEAR=1995
DGENRE=Blues
TTITLE0=Como Una Mosca
TTITLE1=La Flor Más Bella
TTITLE2=Estaño De Bar
TTITLE3=El Rock And Roll y Yo
TTITLE4=La Revolución
TTITLE5=Lo Único Importante es el Blues
TTITLE6=Lobo De Mar
TTITLE7=Batiendo Los Boogies
TTITLE8=Blues en Fa
TTITLE9=Se Necesita
TTITLE10=Cosas De Hombres
EXTD=
EXTT0=
EXTT1=
EXTT2=
EXTT3=
EXTT4=
EXTT5=
EXTT6=
EXTT7=
EXTT8=
EXTT9=
EXTT10=
PLAYORDER=
